<svg width="36" height="36" viewBox="0 0 36 36" fill="none" xmlns="http://www.w3.org/2000/svg">
<path d="M25.5 21C26.3284 21 27 20.3284 27 19.5C27 18.6716 26.3284 18 25.5 18C24.6716 18 24 18.6716 24 19.5C24 20.3284 24.6716 21 25.5 21Z" fill="#1C274C"/>
<path d="M25.5 27C26.3284 27 27 26.3284 27 25.5C27 24.6716 26.3284 24 25.5 24C24.6716 24 24 24.6716 24 25.5C24 26.3284 24.6716 27 25.5 27Z" fill="#1C274C"/>
<path d="M19.5 19.5C19.5 20.3284 18.8284 21 18 21C17.1716 21 16.5 20.3284 16.5 19.5C16.5 18.6716 17.1716 18 18 18C18.8284 18 19.5 18.6716 19.5 19.5Z" fill="#1C274C"/>
<path d="M19.5 25.5C19.5 26.3284 18.8284 27 18 27C17.1716 27 16.5 26.3284 16.5 25.5C16.5 24.6716 17.1716 24 18 24C18.8284 24 19.5 24.6716 19.5 25.5Z" fill="#1C274C"/>
<path d="M10.5 21C11.3284 21 12 20.3284 12 19.5C12 18.6716 11.3284 18 10.5 18C9.67157 18 9 18.6716 9 19.5C9 20.3284 9.67157 21 10.5 21Z" fill="#1C274C"/>
<path d="M10.5 27C11.3284 27 12 26.3284 12 25.5C12 24.6716 11.3284 24 10.5 24C9.67157 24 9 24.6716 9 25.5C9 26.3284 9.67157 27 10.5 27Z" fill="#1C274C"/>
<path fill-rule="evenodd" clip-rule="evenodd" d="M10.5 2.625C11.1213 2.625 11.625 3.12868 11.625 3.75V4.89408C12.618 4.87498 13.712 4.87499 14.9152 4.875H21.0846C22.2878 4.87499 23.382 4.87498 24.375 4.89408V3.75C24.375 3.12868 24.8787 2.625 25.5 2.625C26.1213 2.625 26.625 3.12868 26.625 3.75V4.99063C27.0149 5.02036 27.3841 5.05773 27.7335 5.1047C29.4922 5.34114 30.9156 5.83932 32.0381 6.96186C33.1607 8.08441 33.6589 9.50783 33.8953 11.2665C34.125 12.9753 34.125 15.1587 34.125 17.9153V21.0846C34.125 23.8412 34.125 26.0247 33.8953 27.7335C33.6589 29.4922 33.1607 30.9156 32.0381 32.0381C30.9156 33.1607 29.4922 33.6589 27.7335 33.8953C26.0247 34.125 23.8413 34.125 21.0847 34.125H14.9154C12.1588 34.125 9.97528 34.125 8.26647 33.8953C6.50783 33.6589 5.08441 33.1607 3.96187 32.0381C2.83932 30.9156 2.34114 29.4922 2.1047 27.7335C1.87496 26.0247 1.87498 23.8413 1.875 21.0846V17.9154C1.87498 15.1587 1.87496 12.9753 2.1047 11.2665C2.34114 9.50783 2.83932 8.08441 3.96187 6.96186C5.08441 5.83932 6.50783 5.34114 8.26647 5.1047C8.61586 5.05773 8.98509 5.02036 9.375 4.99063V3.75C9.375 3.12868 9.87868 2.625 10.5 2.625ZM8.56627 7.33464C7.05714 7.53754 6.18767 7.91804 5.55286 8.55286C4.91804 9.18767 4.53754 10.0571 4.33464 11.5663C4.30028 11.8219 4.27155 12.0909 4.24752 12.375H31.7525C31.7285 12.0909 31.6997 11.8219 31.6654 11.5663C31.4625 10.0571 31.082 9.18767 30.4471 8.55286C29.8123 7.91804 28.9429 7.53754 27.4337 7.33464C25.8922 7.12739 23.8602 7.125 21 7.125H15C12.1398 7.125 10.1078 7.12739 8.56627 7.33464ZM4.125 18C4.125 16.719 4.12548 15.6041 4.14463 14.625H31.8554C31.8745 15.6041 31.875 16.719 31.875 18V21C31.875 23.8602 31.8726 25.8922 31.6654 27.4337C31.4625 28.9429 31.082 29.8123 30.4471 30.4471C29.8123 31.082 28.9429 31.4625 27.4337 31.6654C25.8922 31.8726 23.8602 31.875 21 31.875H15C12.1398 31.875 10.1078 31.8726 8.56627 31.6654C7.05714 31.4625 6.18767 31.082 5.55286 30.4471C4.91804 29.8123 4.53754 28.9429 4.33464 27.4337C4.12739 25.8922 4.125 23.8602 4.125 21V18Z" fill="#1C274C"/>
</svg>
