<svg width="36" height="36" viewBox="0 0 36 36" fill="none" xmlns="http://www.w3.org/2000/svg">
<path fill-rule="evenodd" clip-rule="evenodd" d="M15.691 1.875H20.309C22.7141 1.87499 24.5996 1.87498 26.1058 2.0182C27.6412 2.16418 28.8983 2.46685 30.0066 3.14598C31.1671 3.85716 32.1428 4.83291 32.854 5.99345C33.5331 7.10168 33.8358 8.35884 33.9818 9.89416C34.125 11.4004 34.125 13.2859 34.125 15.6909V17.2918C34.125 19.0037 34.125 20.346 34.051 21.4302C33.9758 22.5335 33.8202 23.4516 33.4685 24.3006C32.5931 26.414 30.914 28.0931 28.8006 28.9685C27.5932 29.4686 26.2179 29.5796 24.335 29.612C23.6763 29.6234 23.2591 29.6317 22.9411 29.6669C22.644 29.6998 22.5288 29.748 22.4614 29.7872C22.3902 29.8286 22.2934 29.904 22.1252 30.1348C21.9431 30.3845 21.7374 30.7297 21.4112 31.2808L20.5981 32.6546C19.4377 34.615 16.5622 34.615 15.4018 32.6546L14.5887 31.2808C14.2625 30.7297 14.0568 30.3845 13.8748 30.1348C13.7066 29.904 13.6097 29.8286 13.5386 29.7872C13.4712 29.748 13.356 29.6998 13.0588 29.6669C12.7408 29.6317 12.3236 29.6234 11.665 29.612C9.78206 29.5796 8.40682 29.4686 7.19935 28.9685C5.08599 28.0931 3.40692 26.414 2.53154 24.3006C2.17984 23.4516 2.02424 22.5335 1.94897 21.4302C1.87499 20.3459 1.875 19.0037 1.875 17.2918L1.875 15.691C1.87499 13.2859 1.87498 11.4004 2.0182 9.89416C2.16418 8.35884 2.46685 7.10168 3.14598 5.99345C3.85716 4.83291 4.83291 3.85716 5.99345 3.14598C7.10168 2.46685 8.35884 2.16418 9.89416 2.0182C11.4004 1.87498 13.2859 1.87499 15.691 1.875ZM10.1071 4.2581C8.7365 4.38842 7.86436 4.63835 7.16907 5.06442C6.31128 5.59007 5.59007 6.31128 5.06442 7.16907C4.63835 7.86436 4.38842 8.7365 4.2581 10.1071C4.12619 11.4945 4.125 13.2731 4.125 15.75V17.25C4.125 19.0127 4.12561 20.2783 4.19375 21.2771C4.26121 22.2657 4.39106 22.9104 4.61027 23.4396C5.25729 25.0017 6.49834 26.2427 8.06039 26.8897C8.83385 27.2101 9.82059 27.3299 11.7037 27.3623L11.7515 27.3632C12.3485 27.3734 12.8716 27.3824 13.3065 27.4306C13.7737 27.4823 14.2307 27.5869 14.6698 27.8423C15.1052 28.0955 15.4193 28.4339 15.6931 28.8095C15.9461 29.1566 16.2061 29.5959 16.5005 30.0935L17.3381 31.5085C17.6272 31.997 18.3727 31.997 18.6619 31.5085L19.4994 30.0935C19.7939 29.5959 20.0539 29.1566 20.3068 28.8095C20.5806 28.4339 20.8947 28.0955 21.3301 27.8423C21.7693 27.5869 22.2262 27.4823 22.6935 27.4306C23.1283 27.3824 23.6515 27.3734 24.2485 27.3632L24.2962 27.3623C26.1794 27.3299 27.1662 27.2101 27.9396 26.8897C29.5017 26.2427 30.7427 25.0017 31.3897 23.4396C31.6089 22.9104 31.7388 22.2657 31.8062 21.2771C31.8744 20.2783 31.875 19.0127 31.875 17.25V15.75C31.875 13.2731 31.8738 11.4945 31.7419 10.1071C31.6116 8.7365 31.3617 7.86436 30.9356 7.16907C30.4099 6.31128 29.6887 5.59007 28.8309 5.06442C28.1356 4.63835 27.2635 4.38842 25.8929 4.2581C24.5055 4.12619 22.7269 4.125 20.25 4.125H15.75C13.2731 4.125 11.4945 4.12619 10.1071 4.2581ZM10.875 13.5C10.875 12.8787 11.3787 12.375 12 12.375H24C24.6213 12.375 25.125 12.8787 25.125 13.5C25.125 14.1213 24.6213 14.625 24 14.625H12C11.3787 14.625 10.875 14.1213 10.875 13.5ZM10.875 18.75C10.875 18.1287 11.3787 17.625 12 17.625H20.25C20.8713 17.625 21.375 18.1287 21.375 18.75C21.375 19.3713 20.8713 19.875 20.25 19.875H12C11.3787 19.875 10.875 19.3713 10.875 18.75Z" fill="#1C274C"/>
</svg>
