<svg width="36" height="36" viewBox="0 0 36 36" fill="none" xmlns="http://www.w3.org/2000/svg">
<path fill-rule="evenodd" clip-rule="evenodd" d="M17.9139 1.875C14.4514 1.87498 11.7378 1.87497 9.62056 2.15962C7.45345 2.45098 5.74342 3.05899 4.40121 4.40121C3.05899 5.74342 2.45098 7.45345 2.15962 9.62056C1.87497 11.7378 1.87498 14.4513 1.875 17.9139V18.0861C1.87498 21.5486 1.87497 24.2622 2.15962 26.3794C2.45098 28.5465 3.05899 30.2566 4.40121 31.5988C5.74342 32.941 7.45345 33.549 9.62056 33.8404C11.7378 34.125 14.4513 34.125 17.9139 34.125H18.0861C21.5487 34.125 24.2622 34.125 26.3794 33.8404C28.5465 33.549 30.2566 32.941 31.5988 31.5988C32.941 30.2566 33.549 28.5465 33.8404 26.3794C34.125 24.2622 34.125 21.5487 34.125 18.0861V17.9139C34.125 14.4513 34.125 11.7378 33.8404 9.62056C33.549 7.45345 32.941 5.74342 31.5988 4.40121C30.2566 3.05899 28.5465 2.45098 26.3794 2.15962C24.2622 1.87497 21.5487 1.87498 18.0861 1.875H17.9139ZM16.875 4.12541C13.8844 4.12857 11.659 4.15581 9.92037 4.38956C8.00276 4.64737 6.84668 5.13771 5.9922 5.9922C5.13771 6.84668 4.64737 8.00276 4.38956 9.92037C4.15581 11.659 4.12857 13.8844 4.12541 16.875H10.3706C9.84418 16.2174 9.45083 15.4418 9.23634 14.5838C8.42896 11.3543 11.3543 8.42896 14.5838 9.23634C15.4418 9.45083 16.2174 9.84418 16.875 10.3706V4.12541ZM4.12541 19.125C4.12857 22.1156 4.15581 24.341 4.38956 26.0796C4.64737 27.9972 5.13771 29.1533 5.9922 30.0078C6.84668 30.8623 8.00276 31.3526 9.92037 31.6104C11.659 31.8442 13.8844 31.8714 16.875 31.8746V21.1855C15.7055 23.5213 13.29 25.125 10.5 25.125C9.87868 25.125 9.375 24.6213 9.375 24C9.375 23.3787 9.87868 22.875 10.5 22.875C12.8052 22.875 14.7367 21.275 15.2445 19.125H15.0526L15.0388 19.125H4.12541ZM19.125 31.8746C22.1156 31.8714 24.341 31.8442 26.0796 31.6104C27.9972 31.3526 29.1533 30.8623 30.0078 30.0078C30.8623 29.1533 31.3526 27.9972 31.6104 26.0796C31.8442 24.341 31.8714 22.1156 31.8746 19.125H20.9612L20.9474 19.125H20.7555C21.2633 21.275 23.1948 22.875 25.5 22.875C26.1213 22.875 26.625 23.3787 26.625 24C26.625 24.6213 26.1213 25.125 25.5 25.125C22.71 25.125 20.2945 23.5213 19.125 21.1855V31.8746ZM31.8746 16.875H25.6294C26.1558 16.2174 26.5492 15.4418 26.7637 14.5838C27.5711 11.3543 24.6458 8.42896 21.4162 9.23634C20.5583 9.45083 19.7826 9.84419 19.125 10.3706V4.12541C22.1156 4.12857 24.341 4.15581 26.0796 4.38956C27.9972 4.64737 29.1533 5.13771 30.0078 5.9922C30.8623 6.84668 31.3526 8.00276 31.6104 9.92037C31.8442 11.659 31.8714 13.8844 31.8746 16.875ZM19.125 16.875L19.125 15.0437C19.1291 13.3288 20.2975 11.8353 21.9619 11.4192C23.5436 11.0237 24.9763 12.4564 24.5809 14.0381C24.1649 15.7018 22.6723 16.8701 20.9583 16.875H19.125ZM16.875 15.0412C16.8698 13.3274 15.7017 11.8351 14.0381 11.4192C12.4564 11.0237 11.0237 12.4564 11.4192 14.0381C11.8351 15.7018 13.3277 16.8701 15.0417 16.875H16.875V15.0412Z" fill="#1C274C"/>
</svg>
