<svg width="36" height="36" viewBox="0 0 36 36" fill="none" xmlns="http://www.w3.org/2000/svg">
<path fill-rule="evenodd" clip-rule="evenodd" d="M3.375 18C3.375 9.92284 9.92284 3.375 18 3.375C26.0772 3.375 32.625 9.92284 32.625 18V22.189C32.7423 22.1476 32.8685 22.125 33 22.125C33.6213 22.125 34.125 22.6287 34.125 23.25V26.25C34.125 26.8713 33.6213 27.375 33 27.375C32.864 27.375 32.7337 27.3509 32.613 27.3067C32.6048 27.6074 32.5909 27.8842 32.5673 28.138C32.5068 28.791 32.3762 29.393 32.0533 29.9569C31.8385 30.332 31.5683 30.672 31.2511 30.9643C30.7705 31.4072 30.2135 31.659 29.5967 31.8459C29.0138 32.0226 28.29 32.1653 27.4326 32.3344L27.3213 32.3564C26.7358 32.4719 26.2042 32.5768 25.7618 32.6116C25.2856 32.6492 24.749 32.623 24.2348 32.3336C23.9303 32.1622 23.6642 31.9319 23.4501 31.6579C23.0941 31.2026 22.9751 30.6828 22.9235 30.2042C22.8749 29.753 22.875 29.1966 22.875 28.5719V20.7175C22.875 20.1866 22.8749 19.7098 22.9131 19.3182C22.9537 18.9003 23.047 18.4487 23.3221 18.0303C23.5487 17.6857 23.8523 17.3966 24.2117 17.1895C24.6544 16.9344 25.1157 16.8779 25.5323 16.8751C25.9173 16.8725 26.3794 16.9181 26.8834 16.9678L26.9885 16.9782C27.867 17.0648 28.6061 17.1377 29.2051 17.2563C29.6155 17.3376 30.0046 17.448 30.3694 17.6228C30.17 10.9628 24.7083 5.625 18 5.625C11.2917 5.625 5.83001 10.9628 5.63064 17.6228C5.99539 17.448 6.38447 17.3376 6.79494 17.2563C7.39389 17.1377 8.13301 17.0648 9.0115 16.9782L9.11661 16.9678C9.62058 16.9181 10.0827 16.8725 10.4677 16.8751C10.8843 16.8779 11.3456 16.9344 11.7883 17.1895C12.1477 17.3966 12.4513 17.6857 12.6779 18.0303C12.953 18.4487 13.0463 18.9003 13.0869 19.3182C13.1251 19.7098 13.125 20.1867 13.125 20.7175V28.5719C13.125 29.1966 13.1251 29.753 13.0765 30.2042C13.0249 30.6828 12.9059 31.2026 12.5499 31.6579C12.3358 31.9319 12.0697 32.1622 11.7652 32.3336C11.251 32.623 10.7144 32.6492 10.2382 32.6116C9.79582 32.5768 9.26418 32.4719 8.67876 32.3564L8.56736 32.3344C7.70997 32.1653 6.98616 32.0226 6.40327 31.8459C5.78653 31.659 5.22952 31.4072 4.74885 30.9643C4.43172 30.672 4.16148 30.332 3.94669 29.9569C3.62383 29.393 3.49318 28.791 3.43267 28.138C3.40915 27.8842 3.39522 27.6074 3.38697 27.3067C3.26631 27.3509 3.13597 27.375 3 27.375C2.37868 27.375 1.875 26.8713 1.875 26.25V23.25C1.875 22.6287 2.37868 22.125 3 22.125C3.13149 22.125 3.25771 22.1476 3.375 22.189V18ZM5.625 25.7899C5.625 26.7673 5.62612 27.4238 5.67307 27.9304C5.7183 28.4185 5.79913 28.664 5.89923 28.8388C6.00108 29.0167 6.12771 29.1753 6.27362 29.3097C6.41151 29.4368 6.6152 29.5591 7.05597 29.6927C7.51853 29.8329 8.13109 29.955 9.05607 30.1374C9.71849 30.2681 10.1194 30.3453 10.415 30.3686C10.5744 30.3812 10.6471 30.3721 10.6713 30.3672C10.7087 30.3446 10.7444 30.3137 10.7754 30.2746C10.7847 30.2563 10.8163 30.1782 10.8394 29.9632C10.8735 29.6473 10.875 29.2141 10.875 28.5156V20.767C10.875 20.171 10.8737 19.8055 10.8475 19.5362C10.8292 19.3482 10.8039 19.2801 10.797 19.2652C10.7619 19.2122 10.7186 19.1716 10.6725 19.1435C10.6527 19.1382 10.5909 19.126 10.4524 19.1251C10.2006 19.1233 9.85856 19.1556 9.2858 19.2121C8.33973 19.3054 7.71063 19.3686 7.2321 19.4634C6.77354 19.5542 6.56088 19.6556 6.41795 19.7632C6.20819 19.9213 6.029 20.1251 5.89391 20.3639C5.79721 20.5349 5.71703 20.7812 5.67229 21.2772C5.62607 21.7896 5.625 22.4549 5.625 23.4414V25.7899ZM30.375 23.4414C30.375 22.4549 30.3739 21.7896 30.3277 21.2772C30.283 20.7812 30.2028 20.5349 30.1061 20.3639C29.971 20.1251 29.7918 19.9213 29.5821 19.7632C29.4391 19.6556 29.2265 19.5542 28.7679 19.4634C28.2894 19.3686 27.6603 19.3054 26.7142 19.2121C26.1414 19.1556 25.7994 19.1233 25.5476 19.1251C25.4091 19.126 25.3473 19.1382 25.3275 19.1435C25.2814 19.1716 25.2381 19.2122 25.203 19.2652C25.1961 19.2801 25.1708 19.3482 25.1525 19.5362C25.1263 19.8055 25.125 20.171 25.125 20.767V28.5156C25.125 29.2141 25.1265 29.6473 25.1606 29.9632C25.1837 30.1782 25.2153 30.2563 25.2246 30.2746C25.2556 30.3137 25.2913 30.3446 25.3287 30.3672C25.3529 30.3722 25.4256 30.3812 25.585 30.3686C25.8806 30.3453 26.2815 30.2681 26.9439 30.1374C27.8689 29.955 28.4815 29.8329 28.944 29.6927C29.3848 29.5591 29.5885 29.4368 29.7264 29.3097C29.8723 29.1753 29.9989 29.0167 30.1008 28.8388C30.2009 28.664 30.2817 28.4185 30.3269 27.9304C30.3739 27.4238 30.375 26.7673 30.375 25.7899V23.4414Z" fill="#1C274C"/>
</svg>
